<?xml version="1.0" encoding="utf-8"?>
<!-- Generator: Adobe Illustrator 16.0.4, SVG Export Plug-In . SVG Version: 6.00 Build 0)  -->
<!DOCTYPE svg PUBLIC "-//W3C//DTD SVG 1.1//EN" "http://www.w3.org/Graphics/SVG/1.1/DTD/svg11.dtd">
<svg version="1.1" id="Layer_1" xmlns="http://www.w3.org/2000/svg" xmlns:xlink="http://www.w3.org/1999/xlink" x="0px" y="0px"
	 width="400px" height="400px" viewBox="0 0 400 400" enable-background="new 0 0 400 400" xml:space="preserve">
<g>
	<path fill-rule="evenodd" clip-rule="evenodd" fill="#BDC0C3" d="M241.66,139.108c11.014,0,19.937,8.931,19.937,19.943
		c0,11.013-8.923,19.94-19.937,19.94c-11.013,0-19.942-8.928-19.942-19.94C221.718,148.039,230.647,139.108,241.66,139.108
		L241.66,139.108z M158.347,139.108c11.013,0,19.937,8.931,19.937,19.943c0,11.013-8.923,19.94-19.937,19.94
		c-11.02,0-19.943-8.928-19.943-19.94C138.404,148.039,147.328,139.108,158.347,139.108L158.347,139.108z M274.091,268.495
		c0,4.55-2.024,6.202-3.918,6.202c-1.901,0-5.437-1.51-5.437-7.199c0-10.946-22.813-51.726-64.736-51.726
		c-41.923,0-64.736,40.779-64.736,51.726c0,5.689-3.535,7.199-5.437,7.199c-1.894,0-3.917-1.652-3.917-6.202
		c0-29.426,29.589-71.357,74.09-71.357C244.501,197.138,274.091,239.069,274.091,268.495L274.091,268.495z M200,312.902
		c-62.355,0-112.903-50.549-112.903-112.903c0-62.354,50.548-112.902,112.903-112.902c62.352,0,112.903,50.548,112.903,112.902
		C312.903,262.354,262.353,312.902,200,312.902L200,312.902z M200,69.82c-71.896,0-130.18,58.283-130.18,130.179
		c0,71.896,58.284,130.179,130.18,130.179c71.895,0,130.179-58.283,130.179-130.179C330.18,128.103,271.896,69.82,200,69.82
		L200,69.82z M200,363.268c-90.171,0-163.269-73.098-163.269-163.268S109.829,36.731,200,36.731
		c90.168,0,163.268,73.098,163.268,163.269S290.169,363.268,200,363.268L200,363.268z M200,0C89.543,0,0,89.542,0,200
		c0,110.457,89.543,200,200,200c110.456,0,200-89.544,200-200C400,89.542,310.456,0,200,0L200,0z"/>
</g>
</svg>
