<svg xmlns="http://www.w3.org/2000/svg" width="161" height="185"><g fill="none" fill-rule="nonzero"><path fill="#000" d="m20.1 158.9 1.8 1.8c31.6 31.6 83 31.6 114.5 0s31.6-83 0-114.5l-1.8-1.8L20.1 158.9Zm85.9-25.2 24.9 24.9c-8 5.1-25.3 3.8-44.4-5.4l19.5-19.5Zm-24.2 17.1C72.9 146 63.7 139.4 55 131l24.1-24.1 23.3 23.3-20.6 20.6Zm52.6 4.3-24.9-24.9 19.3-19.3c2.2 4.7 4.1 9.5 5.5 14.3 3.7 12.7 3.7 24 .1 29.9ZM106 126.6l-23.3-23.3 24.1-24.1c7.9 8.2 14.5 17.4 19.6 27L106 126.6Zm-54.5 7.9c8.5 8.2 17.6 14.8 26.7 19.9l-21.5 21.5c-10.7-3.3-20.8-9-29.5-17.1l24.3-24.3Zm10.8 42.9 20.6-20.6c14.3 7.2 28.2 10.3 38.8 9.5-17.7 12-39.3 15.7-59.4 11.1Zm79.7-31.3c.8-10.6-2.5-24.6-9.5-38.9l20.7-20.7c4.6 20.2.9 41.9-11.2 59.6Zm9.7-65.2-21.6 21.6c-5-9.2-11.6-18.4-19.7-26.8l24.3-24.3c8.1 8.7 13.8 18.8 17 29.5Z"/><g fill="#0F0"><path d="M29.3 150.2c-23-24.6-22.5-63.4 1.5-87.4 16.4-16.4 40.4-22.3 62.1-15.9L60.3 66.7l6.2 10.2 49.3-30L82.8.1 73 7l19.3 27.3c-24.8-5.8-51.4 1.4-70 20-28.7 28.7-29.2 75-1.5 104.3l8.5-8.4ZM21.9 159.7l.4.4-.4-.4Z"/></g></g></svg>