<?xml version="1.0" encoding="utf-8"?>
<!-- Generator: Adobe Illustrator 16.0.4, SVG Export Plug-In . SVG Version: 6.00 Build 0)  -->
<!DOCTYPE svg PUBLIC "-//W3C//DTD SVG 1.1//EN" "http://www.w3.org/Graphics/SVG/1.1/DTD/svg11.dtd">
<svg version="1.1" id="Layer_1" xmlns="http://www.w3.org/2000/svg" xmlns:xlink="http://www.w3.org/1999/xlink" x="0px" y="0px"
	 width="360px" height="150px" viewBox="0 0 360 150" enable-background="new 0 0 360 150" xml:space="preserve">
<rect x="-1" y="1" fill="#EEEEEE" width="360" height="150"/>
<g>
	<path fill-rule="evenodd" clip-rule="evenodd" fill="#CFD9D1" d="M196.731,58.725c3.33,0,6.027,2.7,6.027,6.03
		s-2.697,6.029-6.027,6.029s-6.03-2.699-6.03-6.029S193.401,58.725,196.731,58.725L196.731,58.725z M171.542,58.725
		c3.33,0,6.028,2.7,6.028,6.03s-2.698,6.029-6.028,6.029c-3.332,0-6.03-2.699-6.03-6.029S168.21,58.725,171.542,58.725
		L171.542,58.725z M161.192,80.042c0-1.376,0.612-1.875,1.185-1.875c0.575,0,1.644,0.456,1.644,2.177
		c0,3.31,7.439,15.639,20.115,15.639c12.675,0,20.114-12.329,20.114-15.639c0-1.721,1.069-2.177,1.645-2.177
		c0.572,0,1.185,0.499,1.185,1.875c0,8.897-9.489,21.304-22.943,21.304C170.681,101.346,161.192,88.939,161.192,80.042
		L161.192,80.042z M184.136,111.271c-18.854,0-34.137-15.283-34.137-34.137c0-18.853,15.283-34.136,34.137-34.136
		c18.852,0,34.136,15.283,34.136,34.136C218.271,95.988,202.987,111.271,184.136,111.271L184.136,111.271z M184.136,37.775
		c-21.738,0-39.36,17.622-39.36,39.359c0,21.738,17.622,39.36,39.36,39.36c21.737,0,39.359-17.622,39.359-39.36
		C223.495,55.397,205.873,37.775,184.136,37.775L184.136,37.775z M184.136,126.499c-27.264,0-49.365-22.101-49.365-49.364
		c0-27.263,22.101-49.364,49.365-49.364c27.263,0,49.364,22.102,49.364,49.364C233.5,104.398,211.398,126.499,184.136,126.499
		L184.136,126.499z M184.136,16.665c-33.397,0-60.471,27.073-60.471,60.47c0,33.397,27.074,60.471,60.471,60.471
		c33.396,0,60.47-27.073,60.47-60.471C244.605,43.738,217.532,16.665,184.136,16.665L184.136,16.665z"/>
</g>
</svg>
